Coordinates
version=1
nRows=26
nColumns=22
inDegrees=yes

Units are S.I. units (second, meters, Newtons, ...)
If the header above contains a line with 'inDegrees', this indicates whether rotational values are in degrees (yes) or radians (no).

endheader
time	pelvis_tilt	pelvis_list	pelvis_rotation	pelvis_tx	pelvis_ty	pelvis_tz	hip_flexion_r	hip_adduction_r	hip_rotation_r	knee_angle_r	ankle_angle_r	subtalar_angle_r	hip_flexion_l	hip_adduction_l	hip_rotation_l	knee_angle_l	ankle_angle_l	subtalar_angle_l	lumbar_extension	lumbar_bending	lumbar_rotation
      0.01000000	      1.11067693	      0.03717577	     -8.49287993	     -1.02012766	      0.90535231	     -0.45004592	     -4.61302895	     -1.00022470	     -7.32373664	     -3.98361153	     16.56080239	     -3.63671695	     -1.37904226	     -3.00936795	    -23.79183146	    -13.64160021	     16.58373931	      1.23514213	     -5.01262231	     -2.05171306	      4.23293454
      0.02000000	      1.11274738	      0.03774977	     -8.49390610	     -1.02002307	      0.90535152	     -0.44996707	     -4.62101301	     -0.99708826	     -7.32237180	     -3.98861185	     16.55752701	     -3.63870920	     -1.38804081	     -3.01263028	    -23.79255630	    -13.64490336	     16.58157307	      1.23473674	     -5.00492890	     -2.05663227	      4.23314713
      0.03000000	      1.18200394	      0.02889904	     -8.52470831	     -1.01988367	      0.90545898	     -0.44983845	     -4.72780079	     -0.99392014	     -7.25966872	     -3.94472749	     16.52098276	     -3.70115736	     -1.49958520	     -3.00802013	    -23.83927561	    -13.60639075	     16.55502994	      1.23418648	     -5.07841720	     -2.06237017	      4.27411859
      0.04000000	      1.18205459	      0.02998011	     -8.52515619	     -1.01975973	      0.90545402	     -0.44975192	     -4.73511165	     -0.99037671	     -7.25745017	     -3.94951740	     16.52197857	     -3.70183773	     -1.50800427	     -3.01111176	    -23.83729158	    -13.60890075	     16.55531820	      1.23438764	     -5.06737534	     -2.06633456	      4.27434970
      0.05000000	      1.18223799	      0.03060651	     -8.52447883	     -1.01962952	      0.90545010	     -0.44966353	     -4.74360055	     -0.98631396	     -7.25342257	     -3.95375290	     16.52383239	     -3.70256265	     -1.51803885	     -3.01505022	    -23.83546762	    -13.60950963	     16.55593367	      1.23469836	     -5.05609757	     -2.07039855	      4.27693089
      0.06000000	      1.18856860	      0.01925102	     -8.53888492	     -1.01947865	      0.90545800	     -0.44954538	     -4.77323712	     -0.96899119	     -7.22105743	     -3.93263826	     16.54778436	     -3.71091345	     -1.56106976	     -3.02144438	    -23.83157851	    -13.56675880	     16.56535195	      1.23946441	     -5.05151031	     -2.06380770	      4.31864653
      0.07000000	      1.19076320	      0.02169932	     -8.53647370	     -1.01934747	      0.90545479	     -0.44947880	     -4.78268037	     -0.96855812	     -7.21621320	     -3.93897058	     16.54675990	     -3.71201824	     -1.57075779	     -3.02207012	    -23.83120226	    -13.57120808	     16.56535288	      1.23983869	     -5.04209244	     -2.06538149	      4.32084327
      0.08000000	      1.24904810	      0.01712112	     -8.57129838	     -1.01920218	      0.90553634	     -0.44934867	     -4.86997293	     -0.96973056	     -7.14155891	     -3.90853563	     16.54212802	     -3.75455491	     -1.67680462	     -3.01017688	    -23.86595924	    -13.51945288	     16.56792234	      1.25596722	     -5.10059429	     -2.07376749	      4.37513429
      0.09000000	      1.24876556	      0.01881354	     -8.56379037	     -1.01908274	      0.90553033	     -0.44928826	     -4.87756502	     -0.96729650	     -7.14082939	     -3.91303757	     16.54253508	     -3.75539376	     -1.68254673	     -3.01274650	    -23.86503287	    -13.52230303	     16.56707645	      1.25618568	     -5.09187166	     -2.07607043	      4.37954923
      0.10000000	      1.24834658	      0.01953716	     -8.55576291	     -1.01896771	      0.90552418	     -0.44922340	     -4.88539247	     -0.96321755	     -7.14079875	     -3.91632259	     16.54398132	     -3.75644768	     -1.68847409	     -3.01695953	    -23.86290061	    -13.52423445	     16.56649713	      1.25658730	     -5.08424497	     -2.07936643	      4.38667293
      0.11000000	      1.25059406	      0.01194555	     -8.54562943	     -1.01886395	      0.90552291	     -0.44915586	     -4.90367248	     -0.94858276	     -7.15434014	     -3.90512453	     16.55588276	     -3.76383690	     -1.69761207	     -3.02924978	    -23.84511544	    -13.52506070	     16.56619197	      1.26046234	     -5.08643776	     -2.07638491	      4.42276274
      0.12000000	      1.25033238	      0.01321191	     -8.53694547	     -1.01875377	      0.90551749	     -0.44910362	     -4.91031523	     -0.94628829	     -7.15284515	     -3.90995240	     16.55626926	     -3.76488937	     -1.70322795	     -3.03205287	    -23.84341552	    -13.52731558	     16.56657399	      1.26105419	     -5.08136851	     -2.07761466	      4.42556088
      0.13000000	      1.24988293	      0.01359827	     -8.52426270	     -1.01865276	      0.90551231	     -0.44904895	     -4.91755779	     -0.94173928	     -7.15264040	     -3.91375634	     16.55774531	     -3.76629536	     -1.70735453	     -3.03699634	    -23.83964522	    -13.52891454	     16.56731070	      1.26195635	     -5.07959063	     -2.08126677	      4.43225020
      0.14000000	      1.27367325	     -0.00640578	     -8.48936569	     -1.01855503	      0.90554200	     -0.44902294	     -4.96510545	     -0.91546587	     -7.19705888	     -3.89928473	     16.57151929	     -3.79739492	     -1.73546826	     -3.05942914	    -23.78183914	    -13.53382342	     16.58581277	      1.28135998	     -5.11671167	     -2.06403193	      4.42945209
      0.15000000	      1.27198460	     -0.00399693	     -8.47705776	     -1.01845570	      0.90553508	     -0.44897536	     -4.97038220	     -0.91350036	     -7.19576233	     -3.90293110	     16.57119335	     -3.79815812	     -1.73815304	     -3.06185314	    -23.78092699	    -13.53525136	     16.58556165	      1.28176079	     -5.11438048	     -2.06852210	      4.43460711
      0.16000000	      1.27053656	     -0.00214913	     -8.46222343	     -1.01836225	      0.90552853	     -0.44892860	     -4.97632001	     -0.91054254	     -7.19599572	     -3.90571424	     16.57185511	     -3.79921827	     -1.74009073	     -3.06568666	    -23.77711664	    -13.53690860	     16.58535430	      1.28236001	     -5.11416992	     -2.07421668	      4.44250595
      0.17000000	      1.28741967	     -0.00902918	     -8.42284615	     -1.01826851	      0.90554896	     -0.44891884	     -5.01439448	     -0.89765517	     -7.24751875	     -3.89194581	     16.58368969	     -3.82384032	     -1.75779161	     -3.07289308	    -23.70587380	    -13.53941828	     16.58780281	      1.29471127	     -5.14131928	     -2.07133397	      4.43653895
      0.18000000	      1.28547195	     -0.00697062	     -8.40918550	     -1.01817534	      0.90554150	     -0.44888115	     -5.01827922	     -0.89582571	     -7.24586784	     -3.89584426	     16.58362214	     -3.82441651	     -1.76075155	     -3.07546327	    -23.70566510	    -13.53920524	     16.58772252	      1.29489882	     -5.13976777	     -2.07557675	      4.44073213
      0.19000000	      1.28370774	     -0.00522129	     -8.39402290	     -1.01808859	      0.90553535	     -0.44884605	     -5.02285799	     -0.89322864	     -7.24583387	     -3.89943289	     16.58447413	     -3.82528002	     -1.76275055	     -3.07805905	    -23.70322609	    -13.53852507	     16.58782463	      1.29529696	     -5.13979148	     -2.08017493	      4.44664805
      0.20000000	      1.29843707	     -0.00559565	     -8.35424822	     -1.01799754	      0.90555318	     -0.44885281	     -5.05015407	     -0.88904257	     -7.30340504	     -3.89877067	     16.60395107	     -3.84827174	     -1.78349733	     -3.07451060	    -23.63355843	    -13.52659427	     16.59091171	      1.30618986	     -5.16278105	     -2.08406165	      4.43500231
      0.21000000	      1.29634615	     -0.00356260	     -8.33944018	     -1.01791403	      0.90554691	     -0.44882865	     -5.05358490	     -0.88767559	     -7.30172397	     -3.90258290	     16.60405412	     -3.84876499	     -1.78537362	     -3.07599939	    -23.63426470	    -13.52530843	     16.59066870	      1.30633666	     -5.16189145	     -2.08782574	      4.43909085
      0.22000000	      1.29410077	     -0.00147323	     -8.32310007	     -1.01783652	      0.90554149	     -0.44880906	     -5.05687494	     -0.88628841	     -7.30174451	     -3.90605492	     16.60499735	     -3.84952988	     -1.78657934	     -3.07719571	    -23.63350983	    -13.52309720	     16.59062092	      1.30668687	     -5.16258561	     -2.09231271	      4.44420905
      0.23000000	      1.29204409	      0.00086852	     -8.30607085	     -1.01775836	      0.90553711	     -0.44879473	     -5.06045001	     -0.88544999	     -7.30367948	     -3.90959029	     16.60680094	     -3.85062192	     -1.78807608	     -3.07769802	    -23.63093535	    -13.52077318	     16.59070482	      1.30723256	     -5.16345104	     -2.09688082	      4.44975529
      0.24000000	      1.30508481	      0.01574199	     -8.26025203	     -1.01766459	      0.90554971	     -0.44883341	     -5.07763566	     -0.89963035	     -7.38459383	     -3.92111908	     16.64271756	     -3.87481259	     -1.80973390	     -3.05288696	    -23.54988698	    -13.49570278	     16.58542124	      1.31737087	     -5.18107540	     -2.11725136	      4.42673963
      0.25000000	      1.30265643	      0.01753977	     -8.24488800	     -1.01758282	      0.90554271	     -0.44882403	     -5.08090231	     -0.89890156	     -7.38278387	     -3.92494215	     16.64301646	     -3.87522490	     -1.81155322	     -3.05377522	    -23.55066888	    -13.49398178	     16.58481500	      1.31731442	     -5.18016447	     -2.11964519	      4.43057641
      0.26000000	      1.30005974	      0.01962456	     -8.22849752	     -1.01750222	      0.90553504	     -0.44881745	     -5.08411022	     -0.89832809	     -7.38270974	     -3.92837781	     16.64411133	     -3.87586220	     -1.81325591	     -3.05427653	    -23.55007236	    -13.49142569	     16.58430524	      1.31735381	     -5.17978617	     -2.12241120	      4.43473596
